<?xml version="1.0" standalone="no"?>
<!DOCTYPE svg PUBLIC "-//W3C//DTD SVG 20010904//EN"
 "http://www.w3.org/TR/2001/REC-SVG-20010904/DTD/svg10.dtd">
<svg version="1.0" xmlns="http://www.w3.org/2000/svg"
 width="100.000000pt" height="100.000000pt" viewBox="0 0 100.000000 100.000000"
 preserveAspectRatio="xMidYMid meet">
<metadata>
Created by potrace 1.14, written by Peter Selinger 2001-2017
</metadata>
<g transform="translate(0.000000,100.000000) scale(0.100000,-0.100000)"
fill="#000000" stroke="none">
<path d="M381 984 c-88 -23 -185 -80 -246 -145 -177 -186 -179 -489 -3 -675
54 -57 139 -114 171 -114 26 0 21 10 -34 66 -50 51 -52 54 -59 126 -5 53 -15
87 -33 120 -32 54 -34 96 -6 132 11 15 27 55 34 90 17 79 35 115 81 161 106
106 256 122 381 40 70 -46 111 -108 129 -197 8 -39 24 -82 34 -96 28 -34 25
-88 -5 -132 -18 -25 -27 -55 -31 -100 -8 -89 -18 -111 -70 -154 -46 -39 -55
-56 -28 -56 47 0 166 103 219 190 58 96 78 171 73 281 -3 90 -7 103 -46 181
-108 219 -348 340 -561 282z"/>
<path d="M416 756 c-33 -14 -66 -32 -75 -40 -14 -14 -13 -17 4 -30 34 -25 140
-49 188 -43 59 8 140 44 135 60 -7 20 -102 67 -149 72 -33 4 -59 -1 -103 -19z"/>
<path d="M276 614 c-3 -9 -6 -29 -6 -45 0 -22 6 -32 26 -39 34 -13 390 -13
415 0 13 7 19 21 19 43 0 59 -10 63 -82 36 -85 -33 -218 -33 -296 -1 -63 26
-68 27 -76 6z"/>
<path d="M247 453 c-38 -6 -32 -36 8 -44 17 -4 94 -7 173 -8 l142 -1 0 -51 c0
-58 17 -100 31 -78 5 8 9 31 9 52 0 61 12 73 77 81 63 7 92 19 74 30 -25 16
-435 31 -514 19z"/>
<path d="M272 270 c6 -111 38 -130 228 -130 184 0 230 25 230 123 0 29 -4 58
-9 66 -13 20 -39 6 -46 -24 -3 -14 -7 -36 -10 -50 -6 -26 -50 -55 -84 -55 -32
0 -78 46 -85 85 -4 19 -15 39 -26 45 -10 5 -60 10 -110 10 l-92 0 4 -70z"/>
<path d="M404 66 c-19 -15 -19 -15 3 -37 15 -16 37 -24 75 -27 90 -7 163 38
109 68 -30 16 -164 13 -187 -4z"/>
</g>
</svg>
